<?xml version="1.0" encoding="UTF-8"?>
<svg version="1.1" xmlns="http://www.w3.org/2000/svg" width="560" height="676">
<path d="M0 0 C2.671997 0.35178553 3.73717881 0.6748785 5.46044922 2.80664062 C5.90404785 3.58201172 6.34764648 4.35738281 6.8046875 5.15625 C7.30613281 6.01476562 7.80757813 6.87328125 8.32421875 7.7578125 C8.83597656 8.66273437 9.34773438 9.56765625 9.875 10.5 C10.890976 12.26171798 11.90919683 14.02214333 12.9296875 15.78125 C13.43338867 16.65265625 13.93708984 17.5240625 14.45605469 18.421875 C15.96067074 20.93432685 17.55028752 23.35892785 19.1953125 25.78125 C22.01869603 29.94861936 24.18565053 34.25496542 26.3125 38.8125 C27.65766852 41.35337387 29.0444511 43.60690708 30.65625 45.97265625 C34.92564315 52.26737572 38.68232542 58.86410371 42.5 65.4375 C43.96773832 67.95762149 45.4369367 70.47689028 46.90625 72.99609375 C47.26039978 73.60388168 47.61454956 74.21166962 47.97943115 74.83787537 C50.50891552 79.17400262 53.07674669 83.4854781 55.66796875 87.78491211 C57.71954933 91.19656728 59.73517955 94.62905156 61.75 98.0625 C62.16902588 98.77494873 62.58805176 99.48739746 63.01977539 100.22143555 C65.2739975 104.055081 67.52164759 107.89244313 69.76171875 111.734375 C70.20999023 112.50128662 70.65826172 113.26819824 71.12011719 114.05834961 C71.97827326 115.52672525 72.83449248 116.9962351 73.68847656 118.46704102 C75.2786937 121.1849204 76.77956664 123.73229647 78.78515625 126.16796875 C80.41268002 128.6223374 80.40763069 130.1099442 80 133 C78.93359375 134.74609375 78.93359375 134.74609375 77.4375 136.4375 C74.54815199 140.02709 72.48229865 143.79890093 70.5 147.9375 C68.14540619 152.82999481 65.57343586 157.3442497 62.46484375 161.796875 C60.23103073 165.15652978 58.38881387 168.71010661 56.48828125 172.265625 C55.1170653 174.78491939 53.67926745 177.23820689 52.1875 179.6875 C47.11824978 188.04847113 42.4068702 196.62337063 37.69140625 205.1875 C32.3098543 214.95042332 26.76082735 224.60363992 21.12255859 234.22070312 C17.66969426 240.11606852 14.26620564 246.03370916 10.9375 252 C4.52064314 263.44144498 4.52064314 263.44144498 2 267 C1.01 267 0.02 267 -1 267 C-1.54269531 265.88753906 -2.08539063 264.77507812 -2.64453125 263.62890625 C-5.14677216 258.62772118 -7.90057378 253.78430883 -10.6875 248.9375 C-11.21569336 248.01573975 -11.74388672 247.09397949 -12.28808594 246.14428711 C-15.73714745 240.14390075 -19.25484367 234.18966591 -22.83544922 228.26708984 C-25.3759164 224.05933207 -27.86595259 219.82558014 -30.3125 215.5625 C-30.92738281 214.49128906 -31.54226563 213.42007813 -32.17578125 212.31640625 C-33.45493833 209.99091512 -34.65573122 207.68601998 -35.81640625 205.3046875 C-38.48811758 199.90645058 -41.57148243 194.75108139 -44.625 189.5625 C-45.24310547 188.50716064 -45.86121094 187.45182129 -46.49804688 186.36450195 C-49.29961896 181.58404742 -52.11080506 176.80932763 -54.9296875 172.0390625 C-55.78656649 170.58860555 -56.64334299 169.13808806 -57.5 167.6875 C-58.10920288 166.65629028 -58.10920288 166.65629028 -58.73071289 165.60424805 C-61.40101695 161.06656736 -63.94869802 156.47705981 -66.4140625 151.82421875 C-67.68372609 149.56321684 -69.0041106 147.39046713 -70.3984375 145.20703125 C-70.81730225 144.54203613 -71.23616699 143.87704102 -71.66772461 143.19189453 C-72.49532767 141.88548786 -73.33672738 140.58768899 -74.19360352 139.30029297 C-76.09346968 136.28397723 -77.0113635 134.38919988 -76.90625 130.7890625 C-76.04531153 128.13945015 -75.21158495 126.40652366 -73.5625 124.1875 C-70.64599345 120.02992683 -68.0464635 115.76356423 -65.5 111.375 C-60.78412672 103.27111268 -55.91783555 95.26434524 -50.99804688 87.28271484 C-47.62379646 81.77873519 -44.43784833 76.21005418 -41.37548828 70.52685547 C-39.52605977 67.12934303 -37.56677152 63.80785156 -35.5625 60.5 C-35.18053467 59.86545898 -34.79856934 59.23091797 -34.4050293 58.57714844 C-32.09901639 54.7624885 -29.73066052 50.99493886 -27.3125 47.25 C-25.17009978 43.91467239 -23.17779276 40.55992393 -21.3125 37.0625 C-18.39305668 31.59346197 -15.20708922 26.30314936 -12 21 C-7.82115436 14.08703019 -3.74441791 7.16037811 0 0 Z " fill="#EC191B" transform="translate(360,102)"/>
<path d="M0 0 C0.74507813 0.49242187 1.49015625 0.98484375 2.2578125 1.4921875 C8.61275279 5.99450113 12.76911363 11.52286479 17 18 C17.51175781 18.78117187 18.02351563 19.56234375 18.55078125 20.3671875 C22.13640813 26.10805641 25.14280622 32.12724742 28.109375 38.20385742 C28.42648438 38.85201416 28.74359375 39.5001709 29.0703125 40.16796875 C29.53679199 41.12775635 29.53679199 41.12775635 30.01269531 42.10693359 C31.01080252 44.02071284 32.14231384 45.79588758 33.3046875 47.61328125 C35.30343351 51.60616786 35.0655684 52.76462808 34 57 C32.68408203 59.86157227 32.68408203 59.86157227 31.0078125 62.81640625 C30.08198364 64.44872192 30.08198364 64.44872192 29.13745117 66.11401367 C28.14128784 67.8210144 28.14128784 67.8210144 27.125 69.5625 C26.78675201 70.14448151 26.44850403 70.72646301 26.1000061 71.32608032 C14.94247328 90.44352615 3.075958 102.90386052 -18.5546875 109.81640625 C-33.23994243 113.3517454 -49.82866007 111.40747152 -63 104 C-77.10803319 95.01488382 -86.3392883 83.15713389 -91 67 C-94.68410493 49.78294965 -92.24657525 31.60163062 -82.875 16.67578125 C-80.21450372 12.87903135 -77.46387487 9.10743392 -74 6 C-73.34 6 -72.68 6 -72 6 C-72 5.34 -72 4.68 -72 4 C-51.06083257 -8.38116501 -21.80919144 -15.52950208 0 0 Z " fill="#F9BC07" transform="translate(209,183)"/>
<path d="M0 0 C4.19849513 3.63804028 6.60831162 8.10522302 9.3125 12.875 C9.80032959 13.72562012 10.28815918 14.57624023 10.79077148 15.45263672 C14.15449084 21.36935281 17.21956043 27.37197388 20.203125 33.48828125 C23.41344075 39.76235486 27.07620444 45.77025562 30.69726562 51.81347656 C31.99421882 53.9902968 33.27347894 56.17651462 34.546875 58.3671875 C44.71090712 75.84412456 55.3127182 93.71117197 68.63671875 108.984375 C70 111 70 111 70 115 C66.12634335 115.05038777 62.2528201 115.08617252 58.37890625 115.10986328 C56.4322232 115.12456776 54.48563053 115.15001202 52.5390625 115.17578125 C39.29295254 115.24336344 26.81164517 113.2373512 14 110 C12.86643066 109.71503662 12.86643066 109.71503662 11.70996094 109.42431641 C9.20052341 108.79025394 6.69364242 108.14695755 4.1875 107.5 C3.39899658 107.29850342 2.61049316 107.09700684 1.7980957 106.8894043 C-2.61476909 105.73145147 -6.86475481 104.37904357 -11.11743164 102.72753906 C-13.98915622 101.6177298 -16.90407618 100.6339759 -19.8125 99.625 C-25.02285459 97.76850038 -30.04471375 95.7220061 -35.046875 93.3671875 C-37.87643324 92.05720683 -40.73413427 90.82997654 -43.60424805 89.61206055 C-55.49386069 84.53990611 -66.80646068 78.44829378 -78 72 C-78 71.34 -78 70.68 -78 70 C-78.8353125 69.62875 -78.8353125 69.62875 -79.6875 69.25 C-82.42410913 67.77075182 -84.67650869 66.06532561 -87 64 C-87 63.34 -87 62.68 -87 62 C-88.32 61.67 -89.64 61.34 -91 61 C-90.67 60.01 -90.34 59.02 -90 58 C-88.41690095 57.70706435 -86.83350085 57.41575581 -85.25 57.125 C-84.24195313 56.939375 -83.23390625 56.75375 -82.1953125 56.5625 C-80.15287927 56.20295185 -78.10601925 55.8672071 -76.0546875 55.5625 C-58.7541821 52.97895786 -43.23239179 46.54158617 -30 35 C-29.18015625 34.30003906 -28.3603125 33.60007812 -27.515625 32.87890625 C-18.65250869 25.13039396 -11.5892131 16.7238873 -5 7 C-4.02539133 5.62176551 -3.04677428 4.24634843 -2.0625 2.875 C-1.381875 1.92625 -0.70125 0.9775 0 0 Z " fill="#0A52D8" transform="translate(264,270)"/>
<path d="M0 0 C-0.71880901 4.00795541 -1.81530452 6.75461922 -3.9375 10.25 C-4.56914062 11.30316406 -5.20078125 12.35632813 -5.8515625 13.44140625 C-6.37024902 14.29822998 -6.37024902 14.29822998 -6.89941406 15.17236328 C-8.47371589 17.78665421 -10.01603721 20.41936048 -11.55981445 23.05175781 C-12.82993252 25.21722125 -14.10414594 27.3802354 -15.37890625 29.54296875 C-17.14449134 32.54109472 -18.90147585 35.54403833 -20.65234375 38.55078125 C-27.88708221 50.95203288 -27.88708221 50.95203288 -31.25 55.8125 C-34.13105316 60.0045942 -36.28477755 64.46814404 -38.5078125 69.03515625 C-40.29384109 72.58383608 -42.30616806 75.94324144 -44.375 79.33203125 C-49.97217516 88.52162411 -55.00122192 97.75285868 -59.38623047 107.57836914 C-61.79465092 112.89732546 -61.79465092 112.89732546 -64 114 C-64.4846875 113.10539062 -64.969375 112.21078125 -65.46875 111.2890625 C-69.70732429 103.59276015 -74.22501801 96.66430671 -80 90 C-80.67160156 89.195625 -81.34320313 88.39125 -82.03515625 87.5625 C-86.0148852 82.90031272 -89.9636433 79.46249523 -95 76 C-95 75.34 -95 74.68 -95 74 C-95.69996094 73.73960937 -96.39992187 73.47921875 -97.12109375 73.2109375 C-100.25387155 71.8932155 -103.1071465 70.30226382 -106.0625 68.625 C-120.59309267 60.83440415 -137.46149645 57.43937276 -154 58 C-154.495 56.515 -154.495 56.515 -155 55 C-154.34 55 -153.68 55 -153 55 C-153 54.34 -153 53.68 -153 53 C-150.98046875 51.51953125 -150.98046875 51.51953125 -148.1875 49.8125 C-146.68703125 48.884375 -146.68703125 48.884375 -145.15625 47.9375 C-144.1146875 47.298125 -143.073125 46.65875 -142 46 C-140.06002079 44.77474998 -138.12241018 43.54573945 -136.1875 42.3125 C-134.81464844 41.44238281 -134.81464844 41.44238281 -133.4140625 40.5546875 C-131.60385802 39.38889238 -129.82464008 38.17474729 -128.0625 36.9375 C-124.21895855 34.50587174 -120.20349795 32.5612291 -116.12109375 30.5625 C-113.31886968 29.15963438 -110.60023982 27.67028236 -107.875 26.125 C-95.78741467 19.53332811 -83.22988199 14.56337349 -70.1875 10.1875 C-69.07955078 9.81455811 -67.97160156 9.44161621 -66.83007812 9.05737305 C-59.30065928 6.59062717 -51.74092946 4.6751056 -44 3 C-43.28062256 2.83089111 -42.56124512 2.66178223 -41.82006836 2.48754883 C-27.99909631 -0.75942675 -14.1146922 -0.30422958 0 0 Z " fill="#35A853" transform="translate(329,84)"/>
<path d="M0 0 C0 4.15407123 -1.94087857 7.06061065 -3.875 10.625 C-4.27557617 11.37193115 -4.67615234 12.1188623 -5.08886719 12.88842773 C-11.00284358 23.82105115 -17.37526497 34.48524011 -24 45 C-25 42 -25 42 -25 40 C-24.34 40 -23.68 40 -23 40 C-22.7834375 38.88625 -22.7834375 38.88625 -22.5625 37.75 C-22.09812508 35.47972261 -21.58136431 33.24240521 -21 31 C-20.34 31 -19.68 31 -19 31 C-19 30.01 -19 29.02 -19 28 C-18.01 27.34 -17.02 26.68 -16 26 C-15.27617533 23.94074861 -15.27617533 23.94074861 -15 22 C-14.34 22 -13.68 22 -13 22 C-12.7834375 21.071875 -12.7834375 21.071875 -12.5625 20.125 C-12 18 -12 18 -11 16 C-10.34 16 -9.68 16 -9 16 C-9 14.68 -9 13.36 -9 12 C-8.34 12 -7.68 12 -7 12 C-7 11.01 -7 10.02 -7 9 C-6.34 9 -5.68 9 -5 9 C-4.67 7.35 -4.34 5.7 -4 4 C-3.34 4 -2.68 4 -2 4 C-2 3.01 -2 2.02 -2 1 C-1.34 0.67 -0.68 0.34 0 0 Z " fill="#BC6767" transform="translate(402,296)"/>
<path d="M0 0 C1.65 0 3.3 0 5 0 C5 0.66 5 1.32 5 2 C10.94 3.485 10.94 3.485 17 5 C17 5.66 17 6.32 17 7 C34.325 6.505 34.325 6.505 52 6 C47.19580793 10.80419207 38.55051403 10.24096165 32.125 10.3125 C22.11354737 10.27259971 8.94313712 8.53097325 1.25390625 1.375 C0.84011719 0.92125 0.42632812 0.4675 0 0 Z " fill="#F3C74D" transform="translate(143,284)"/>
<path d="M0 0 C0.88042969 0.08378906 1.76085937 0.16757812 2.66796875 0.25390625 C4.41013672 0.40666016 4.41013672 0.40666016 6.1875 0.5625 C7.33605469 0.66691406 8.48460937 0.77132813 9.66796875 0.87890625 C12.68631199 0.98859985 15.08923936 0.74002389 18 0 C18 0.99 18 1.98 18 3 C18.99 3.33 19.98 3.66 21 4 C21 4.99 21 5.98 21 7 C24.63 7.66 28.26 8.32 32 9 C31.01 9.495 31.01 9.495 30 10 C30 10.66 30 11.32 30 12 C24.30336148 11.6202241 19.9897844 9.78776299 14.859375 7.3359375 C11.30224187 5.67399825 7.66960607 4.27577188 3.99609375 2.89453125 C2 2 2 2 0 0 Z " fill="#1255D2" transform="translate(224,360)"/>
<path d="M0 0 C3.64482073 4.26648408 6.43270726 8.85961026 9.25 13.6875 C9.93835938 14.84475586 9.93835938 14.84475586 10.640625 16.02539062 C11.07375 16.76337891 11.506875 17.50136719 11.953125 18.26171875 C12.34661133 18.93162842 12.74009766 19.60153809 13.14550781 20.29174805 C14 22 14 22 14 24 C12.02 24.99 12.02 24.99 10 26 C10.33 24.02 10.66 22.04 11 20 C10.34 20 9.68 20 9 20 C8.67 18.02 8.34 16.04 8 14 C7.34 14 6.68 14 6 14 C5.67 14.66 5.34 15.32 5 16 C4.34 15.67 3.68 15.34 3 15 C3 14.34 3 13.68 3 13 C2.34 12.67 1.68 12.34 1 12 C1.20625 11.236875 1.4125 10.47375 1.625 9.6875 C2.33391203 6.78114056 2.33391203 6.78114056 0 4 C0 2.68 0 1.36 0 0 Z " fill="#D92A2C" transform="translate(400,165)"/>
<path d="M0 0 C2 1.25 2 1.25 4 3 C4 4.32 4 5.64 4 7 C-5.57 7 -15.14 7 -25 7 C-25 6.34 -25 5.68 -25 5 C-12.625 4.505 -12.625 4.505 0 4 C0 2.68 0 1.36 0 0 Z " fill="#2F4A74" transform="translate(330,378)"/>
<path d="M0 0 C22.83005215 -0.67257109 22.83005215 -0.67257109 27.8671875 3.57421875 C28.42792969 4.27998047 28.42792969 4.27998047 29 5 C20.5234375 4.39453125 12.046875 3.7890625 3.5703125 3.18359375 C2.29800781 3.09271484 2.29800781 3.09271484 1 3 C0.67 2.01 0.34 1.02 0 0 Z " fill="#6FB783" transform="translate(174,139)"/>
<path d="M0 0 C0.66 0 1.32 0 2 0 C2.33 2.31 2.66 4.62 3 7 C1.20841511 7.02696365 -0.58328473 7.04637917 -2.375 7.0625 C-3.37273437 7.07410156 -4.37046875 7.08570313 -5.3984375 7.09765625 C-8 7 -8 7 -10 6 C-10 5.34 -10 4.68 -10 4 C-10.66 3.67 -11.32 3.34 -12 3 C-10.95199219 2.92652344 -10.95199219 2.92652344 -9.8828125 2.8515625 C-8.97273438 2.77679688 -8.06265625 2.70203125 -7.125 2.625 C-6.22007812 2.55539062 -5.31515625 2.48578125 -4.3828125 2.4140625 C-1.82058097 2.20431868 -1.82058097 2.20431868 0 0 Z " fill="#3565B7" transform="translate(299,376)"/>
<path d="M0 0 C0.33 0.99 0.66 1.98 1 3 C0.03125 4.83984375 0.03125 4.83984375 -1.5 6.9375 C-5.35722899 12.42454405 -8.67219016 18.18125558 -12 24 C-12.85432111 20.89984991 -13.18380965 19.05817494 -12 16 C-11 15 -10 14 -9 13 C-8.28552357 10.89667109 -8.28552357 10.89667109 -8 9 C-7.01 9 -6.02 9 -5 9 C-4.9175 8.2575 -4.835 7.515 -4.75 6.75 C-3.8603054 3.48778646 -2.51496251 2.19045122 0 0 Z " fill="#7BC08E" transform="translate(321,97)"/>
<path d="M0 0 C0.66 0.66 1.32 1.32 2 2 C-0.97 7.28 -3.94 12.56 -7 18 C-7.99 18 -8.98 18 -10 18 C-10 17.01 -10 16.02 -10 15 C-9.67 15 -9.34 15 -9 15 C-8.34 12.36 -7.68 9.72 -7 7 C-6.01 7.33 -5.02 7.66 -4 8 C-3.67 6.68 -3.34 5.36 -3 4 C-2.34 4 -1.68 4 -1 4 C-0.67 2.68 -0.34 1.36 0 0 Z " fill="#E15053" transform="translate(412,276)"/>
<path d="M0 0 C-0.33 0.66 -0.66 1.32 -1 2 C-1.99 2.33 -2.98 2.66 -4 3 C-3.34 3.33 -2.68 3.66 -2 4 C-1.67 4.99 -1.34 5.98 -1 7 C1.01508358 7.73323796 1.01508358 7.73323796 3 8 C2.34 9.32 1.68 10.64 1 12 C-1.04119788 10.38405168 -3.04072937 8.7143618 -5 7 C-5 6.34 -5 5.68 -5 5 C-6.32 4.67 -7.64 4.34 -9 4 C-8.67 3.01 -8.34 2.02 -8 1 C-5.07175348 0.02391783 -3.04386724 -0.08226668 0 0 Z " fill="#164295" transform="translate(182,327)"/>
<path d="M0 0 C0.33 0.99 0.66 1.98 1 3 C-0.23414044 5.34282452 -1.49246493 7.48292584 -2.9375 9.6875 C-3.32357422 10.29400391 -3.70964844 10.90050781 -4.10742188 11.52539062 C-5.06246419 13.02280265 -6.03006086 14.51219401 -7 16 C-8.43088528 13.13822943 -7.59991697 11.06624227 -7 8 C-6.34 8 -5.68 8 -5 8 C-5.33 6.02 -5.66 4.04 -6 2 C-5.34 2.66 -4.68 3.32 -4 4 C-3.67 3.01 -3.34 2.02 -3 1 C-2.01 0.67 -1.02 0.34 0 0 Z " fill="#BF494C" transform="translate(370,351)"/>
<path d="M0 0 C1 2 1 2 0.4375 4.5 C-1.53992282 9.31459469 -4.23558444 13.60127587 -7 18 C-8 15 -8 15 -8 13 C-7.34 13 -6.68 13 -6 13 C-5.7834375 11.88625 -5.7834375 11.88625 -5.5625 10.75 C-5.09812508 8.47972261 -4.58136431 6.24240521 -4 4 C-3.34 4 -2.68 4 -2 4 C-2 3.01 -2 2.02 -2 1 C-1.34 0.67 -0.68 0.34 0 0 Z " fill="#B94C4F" transform="translate(385,323)"/>
<path d="M0 0 C1.32 0 2.64 0 4 0 C4.66 1.98 5.32 3.96 6 6 C5.34 6 4.68 6 4 6 C4 7.32 4 8.64 4 10 C4.66 10.33 5.32 10.66 6 11 C3 11 3 11 1.61328125 9.6875 C0.40885417 8.125 -0.79557292 6.5625 -2 5 C-1.34 3.35 -0.68 1.7 0 0 Z " fill="#45A85E" transform="translate(250,168)"/>
<path d="M0 0 C3.34608165 3.01292201 5.19062724 5.94895757 7.125 10 C7.62257813 11.03125 8.12015625 12.0625 8.6328125 13.125 C9.30957031 14.548125 9.30957031 14.548125 10 16 C10.66315097 17.3350854 11.32821992 18.66923565 12 20 C11.34 20.33 10.68 20.66 10 21 C9.67 19.68 9.34 18.36 9 17 C8.01 17.33 7.02 17.66 6 18 C6.33 16.35 6.66 14.7 7 13 C6.01 12.67 5.02 12.34 4 12 C3.29508733 9.67793475 2.62787571 7.34406932 2 5 C1.34 4.67 0.68 4.34 0 4 C0 2.68 0 1.36 0 0 Z " fill="#D52A2B" transform="translate(378,128)"/>
<path d="M0 0 C0.66 0.66 1.32 1.32 2 2 C1.625 4.125 1.625 4.125 1 6 C-7.57142857 7.28571429 -7.57142857 7.28571429 -11 6 C-11 5.34 -11 4.68 -11 4 C-8.03 4 -5.06 4 -2 4 C-2 3.01 -2 2.02 -2 1 C-1.34 0.67 -0.68 0.34 0 0 Z " fill="#2654A4" transform="translate(270,369)"/>
<path d="M0 0 C0.99 0.33 1.98 0.66 3 1 C3 1.99 3 2.98 3 4 C3.66 4 4.32 4 5 4 C5 4.66 5 5.32 5 6 C5.66 6.33 6.32 6.66 7 7 C7 7.99 7 8.98 7 10 C7.66 10 8.32 10 9 10 C9 9.34 9 8.68 9 8 C9.66 8 10.32 8 11 8 C11 9.65 11 11.3 11 13 C9.68 13.33 8.36 13.66 7 14 C4.66666667 9.33333333 2.33333333 4.66666667 0 0 Z " fill="#902829" transform="translate(352,355)"/>
<path d="M0 0 C7.42857143 1 7.42857143 1 11 2 C11 2.66 11 3.32 11 4 C13.97 4.495 13.97 4.495 17 5 C17 5.66 17 6.32 17 7 C17.66 7.33 18.32 7.66 19 8 C12.48212464 7.47152362 4.6760995 4.6760995 0 0 Z " fill="#233A63" transform="translate(224,360)"/>
<path d="M0 0 C3.38578719 3.20653963 6.01638927 6.76939454 8 11 C7.8125 14 7.8125 14 7 16 C6.34 16 5.68 16 5 16 C5.33 14.35 5.66 12.7 6 11 C5.360625 10.731875 4.72125 10.46375 4.0625 10.1875 C2 9 2 9 1 6 C1.33 5.34 1.66 4.68 2 4 C1.34 4 0.68 4 0 4 C0 2.68 0 1.36 0 0 Z " fill="#1350C5" transform="translate(293,321)"/>
<path d="M0 0 C5.71276596 5.44072948 5.71276596 5.44072948 6.4375 9.375 C5.84159618 12.95042291 4.183566 15.15474734 2 18 C1.67 18 1.34 18 1 18 C1 16.35 1 14.7 1 13 C1.66 13 2.32 13 3 13 C3 10.69 3 8.38 3 6 C2.34 6 1.68 6 1 6 C0.67 4.02 0.34 2.04 0 0 Z " fill="#D86261" transform="translate(434,223)"/>
<path d="M0 0 C0 4.18678194 -2.02541079 7.11522797 -4 10.6875 C-4.57234375 11.7403418 -4.57234375 11.7403418 -5.15625 12.81445312 C-6.09859522 14.54601247 -7.04857268 16.27341426 -8 18 C-8.33 18 -8.66 18 -9 18 C-9 16.35 -9 14.7 -9 13 C-8.34 13 -7.68 13 -7 13 C-7 12.01 -7 11.02 -7 10 C-6.34 10 -5.68 10 -5 10 C-5.33 8.68 -5.66 7.36 -6 6 C-5.01 6 -4.02 6 -3 6 C-2.814375 4.7934375 -2.814375 4.7934375 -2.625 3.5625 C-2.41875 2.716875 -2.2125 1.87125 -2 1 C-1.34 0.67 -0.68 0.34 0 0 Z " fill="#81C291" transform="translate(281,166)"/>
<path d="M0 0 C0.96070434 2.88211302 1.10581883 4.69850044 1.0625 7.6875 C1.05347656 8.49574219 1.04445313 9.30398437 1.03515625 10.13671875 C1.02355469 10.75160156 1.01195312 11.36648437 1 12 C1.66 12 2.32 12 3 12 C3.66 14.31 4.32 16.62 5 19 C1.60937336 15.77890469 -1.04220318 12.26203506 -3 8 C-2.92859991 4.14439537 -2.72658883 2.72658883 0 0 Z " fill="#D12528" transform="translate(286,228)"/>
<path d="M0 0 C8.2322664 0.3451684 8.2322664 0.3451684 11.125 2.8125 C12.14685058 5.36712644 11.99252762 6.47356605 11 9 C10.01 8.34 9.02 7.68 8 7 C8 6.34 8 5.68 8 5 C6.8553125 4.5978125 6.8553125 4.5978125 5.6875 4.1875 C3.08770098 3.0387516 1.89784008 2.0314124 0 0 Z " fill="#48A862" transform="translate(226,153)"/>
<path d="M0 0 C3.17951413 1.58975706 4.1148931 4.79953838 5.625 7.875 C5.94984375 8.51308594 6.2746875 9.15117187 6.609375 9.80859375 C8.05782082 12.7237431 9 14.70246267 9 18 C6.34730103 15.52414762 4.31989897 13.40973899 3 10 C3 9.01 3 8.02 3 7 C2.34 7 1.68 7 1 7 C0.67 4.69 0.34 2.38 0 0 Z " fill="#EFC64C" transform="translate(232,214)"/>
<path d="M0 0 C0.99 0 1.98 0 3 0 C1.62712658 3.69876091 -0.06355453 6.9514476 -2.125 10.3125 C-2.66382813 11.19550781 -3.20265625 12.07851562 -3.7578125 12.98828125 C-4.16773438 13.65214844 -4.57765625 14.31601563 -5 15 C-5.66 14.01 -6.32 13.02 -7 12 C-6.67 11.34 -6.34 10.68 -6 10 C-5.34 10 -4.68 10 -4 10 C-3.67 9.01 -3.34 8.02 -3 7 C-2.67 6.01 -2.34 5.02 -2 4 C-1.34 4 -0.68 4 0 4 C0 2.68 0 1.36 0 0 Z " fill="#89C79A" transform="translate(301,128)"/>
<path d="M0 0 C6.20988129 0.44356295 10.60540561 1.91532502 16 5 C12.77208445 7.1519437 11.71599191 7.20086443 8 7 C8.33 6.34 8.66 5.68 9 5 C8.34 4.67 7.68 4.34 7 4 C7 3.34 7 2.68 7 2 C4.69 2 2.38 2 0 2 C0 1.34 0 0.68 0 0 Z " fill="#F1BD29" transform="translate(192,177)"/>
<path d="M0 0 C0.66 0.66 1.32 1.32 2 2 C1.05065487 3.67180274 0.09026687 5.33733936 -0.875 7 C-1.40867187 7.928125 -1.94234375 8.85625 -2.4921875 9.8125 C-2.98976563 10.534375 -3.48734375 11.25625 -4 12 C-4.66 12 -5.32 12 -6 12 C-5.67 10.02 -5.34 8.04 -5 6 C-4.01 6 -3.02 6 -2 6 C-2.33 4.35 -2.66 2.7 -3 1 C-2.01 0.67 -1.02 0.34 0 0 Z " fill="#DF5053" transform="translate(423,257)"/>
<path d="M0 0 C0.66 0 1.32 0 2 0 C0.62712658 3.69876091 -1.06355453 6.9514476 -3.125 10.3125 C-3.66382813 11.19550781 -4.20265625 12.07851562 -4.7578125 12.98828125 C-5.37269531 13.98408203 -5.37269531 13.98408203 -6 15 C-6.33 13.68 -6.66 12.36 -7 11 C-6.34 11 -5.68 11 -5 11 C-5 10.01 -5 9.02 -5 8 C-4.34 8 -3.68 8 -3 8 C-3 6.35 -3 4.7 -3 3 C-2.34 3 -1.68 3 -1 3 C-0.67 2.01 -0.34 1.02 0 0 Z " fill="#F3D26E" transform="translate(240,240)"/>
<path d="M0 0 C0.66 0 1.32 0 2 0 C0.50829734 4.9723422 -1.60457417 9.41845739 -4 14 C-4.66 12.68 -5.32 11.36 -6 10 C-5.01 9.67 -4.02 9.34 -3 9 C-3 7.35 -3 5.7 -3 4 C-2.34 4 -1.68 4 -1 4 C-0.67 2.68 -0.34 1.36 0 0 Z " fill="#78BC8B" transform="translate(270,184)"/>
<path d="M0 0 C3.12557301 2.73117894 5.07807514 6.16670588 7.1875 9.6875 C7.55552734 10.29400391 7.92355469 10.90050781 8.30273438 11.52539062 C9.20564926 13.01461388 10.10334696 14.50699815 11 16 C10.34 16.33 9.68 16.66 9 17 C8.34 15.35 7.68 13.7 7 12 C6.34 12 5.68 12 5 12 C4.71125 11.195625 4.4225 10.39125 4.125 9.5625 C3.26737432 6.8673532 3.26737432 6.8673532 1 6 C0.375 2.9375 0.375 2.9375 0 0 Z " fill="#D24243" transform="translate(421,201)"/>
<path d="M0 0 C2.72426311 2.35277269 3.8141763 4.62496331 5 8 C2.125 8.1875 2.125 8.1875 -1 8 C-1.66 7.01 -2.32 6.02 -3 5 C-1.68 5.33 -0.36 5.66 1 6 C1 5.01 1 4.02 1 3 C0.34 2.67 -0.32 2.34 -1 2 C-0.67 1.34 -0.34 0.68 0 0 Z " fill="#1956C8" transform="translate(316,358)"/>
<path d="M0 0 C0.66 0 1.32 0 2 0 C1.52467862 5.07009471 -1.04362294 8.97493258 -4 13 C-4.33 13 -4.66 13 -5 13 C-5.25532751 9.93606987 -5.21861333 8.36766788 -3.625 5.6875 C-2.820625 4.8521875 -2.820625 4.8521875 -2 4 C-1.34 4 -0.68 4 0 4 C0 2.68 0 1.36 0 0 Z " fill="#7FBF92" transform="translate(327,84)"/>
<path d="M0 0 C4.29 0.33 8.58 0.66 13 1 C12.01 1.495 12.01 1.495 11 2 C11 2.66 11 3.32 11 4 C6.00837213 3.52003578 4.14964417 3.11223313 0 0 Z " fill="#264375" transform="translate(243,368)"/>
<path d="M0 0 C0.99 0.33 1.98 0.66 3 1 C2.67 1.99 2.34 2.98 2 4 C2.66 4.66 3.32 5.32 4 6 C4 10 4 10 3 13 C-1.07877462 5.9452954 -1.07877462 5.9452954 -0.75 2 C-0.5025 1.34 -0.255 0.68 0 0 Z " fill="#D72326" transform="translate(292,244)"/>
<path d="M0 0 C0.99 0 1.98 0 3 0 C1.43358249 4.30764815 -0.68336156 8.06171464 -3 12 C-3.33 12 -3.66 12 -4 12 C-4.61528766 6.92387682 -2.61658349 4.17017994 0 0 Z " fill="#84C395" transform="translate(286,154)"/>
<path d="M0 0 C0 4.07546013 -1.55304448 5.80536362 -4 9 C-6.25 10.375 -6.25 10.375 -8 11 C-6.63629701 8.00779732 -5.05091917 5.70973471 -2.875 3.25 C-2.33617187 2.63640625 -1.79734375 2.0228125 -1.2421875 1.390625 C-0.62730469 0.70226562 -0.62730469 0.70226562 0 0 Z " fill="#F1BB1F" transform="translate(135,189)"/>
<path d="M0 0 C0.66 0.33 1.32 0.66 2 1 C1.64950425 4.24208567 1.43778819 5.61527704 -1.0625 7.8125 C-1.701875 8.204375 -2.34125 8.59625 -3 9 C-3.66 8.67 -4.32 8.34 -5 8 C-3.35 5.36 -1.7 2.72 0 0 Z " fill="#E31D23" transform="translate(308,191)"/>
<path d="M0 0 C3.29078593 2.79716804 5.06305458 6.19528578 7 10 C6.67 10.66 6.34 11.32 6 12 C3.10067643 9.60490662 2.49831724 7.68754757 2 4 C1.34 4 0.68 4 0 4 C0 2.68 0 1.36 0 0 Z " fill="#1750B7" transform="translate(281,300)"/>
<path d="M0 0 C2.96865509 2.54456151 4.3619751 5.48994665 6 9 C3.69 9 1.38 9 -1 9 C-0.34 8.01 0.32 7.02 1 6 C0.68493373 2.85778033 0.68493373 2.85778033 0 0 Z " fill="#386DCA" transform="translate(273,285)"/>
<path d="M0 0 C0.66 1.32 1.32 2.64 2 4 C1.21654285 5.17219543 0.42297164 6.33763668 -0.375 7.5 C-0.81585938 8.1496875 -1.25671875 8.799375 -1.7109375 9.46875 C-2.13632812 9.9740625 -2.56171875 10.479375 -3 11 C-3.66 11 -4.32 11 -5 11 C-3.55049545 7.2089881 -1.84827434 3.6125362 0 0 Z " fill="#E01E1E" transform="translate(330,153)"/>
<path d="M0 0 C1.65 1.65 3.3 3.3 5 5 C3 7 3 7 0.375 7.125 C-0.40875 7.08375 -1.1925 7.0425 -2 7 C-1.34 4.69 -0.68 2.38 0 0 Z " fill="#1C56D2" transform="translate(322,367)"/>
<path d="M0 0 C3.3 0 6.6 0 10 0 C10 0.99 10 1.98 10 3 C6.14354879 3.22036864 3.50776784 2.60355101 0 1 C0 0.67 0 0.34 0 0 Z " fill="#344A6D" transform="translate(268,376)"/>
<path d="M0 0 C0.33 0.99 0.66 1.98 1 3 C-0.9375 6.1875 -0.9375 6.1875 -3 9 C-4.43088528 6.13822943 -3.59991697 4.06624227 -3 1 C-2.01 0.67 -1.02 0.34 0 0 Z " fill="#BA6F71" transform="translate(370,351)"/>
<path d="M0 0 C2.1519437 3.22791555 2.20086443 4.28400809 2 8 C1.01 8.495 1.01 8.495 0 9 C-2 3.25 -2 3.25 -2 1 C-1.34 0.67 -0.68 0.34 0 0 Z " fill="#B91D1F" transform="translate(342,330)"/>
<path d="M0 0 C0.33 0.66 0.66 1.32 1 2 C0.00390625 3.9453125 0.00390625 3.9453125 -1.4375 6.125 C-1.91058594 6.84945313 -2.38367188 7.57390625 -2.87109375 8.3203125 C-3.24363281 8.87460937 -3.61617187 9.42890625 -4 10 C-4.33 9.34 -4.66 8.68 -5 8 C-2.51612903 1.25806452 -2.51612903 1.25806452 0 0 Z " fill="#F7D679" transform="translate(231,257)"/>
<path d="M0 0 C3.48331435 3.01887244 4.79157144 5.56909529 6 10 C5.01 10 4.02 10 3 10 C2.87625 9.195625 2.7525 8.39125 2.625 7.5625 C2.315625 6.2940625 2.315625 6.2940625 2 5 C1.34 4.67 0.68 4.34 0 4 C0 2.68 0 1.36 0 0 Z " fill="#D0373A" transform="translate(378,128)"/>
<path d="M0 0 C0.66 0.33 1.32 0.66 2 1 C-0.12121657 3.33333823 -2.01594365 4.9148886 -5 6 C-7.12890625 5.546875 -7.12890625 5.546875 -9 5 C-7.54735962 4.1361871 -6.0876837 3.28419546 -4.625 2.4375 C-3.40683594 1.72400391 -3.40683594 1.72400391 -2.1640625 0.99609375 C-1.44992188 0.66738281 -0.73578125 0.33867188 0 0 Z " fill="#3CA35A" transform="translate(217,112)"/>
<path d="M0 0 C2.74277578 3.19990508 4.6302836 6.00499382 6 10 C4.68 9.67 3.36 9.34 2 9 C2 7.35 2 5.7 2 4 C1.34 4 0.68 4 0 4 C0 2.68 0 1.36 0 0 Z " fill="#D03639" transform="translate(368,111)"/>
<path d="M0 0 C0.99 0 1.98 0 3 0 C3.6875 1.6875 3.6875 1.6875 4 4 C2.5625 6.75 2.5625 6.75 1 9 C-0.4783226 6.04335481 -0.06032783 3.25770263 0 0 Z " fill="#C56466" transform="translate(372,341)"/>
<path d="M0 0 C2.15377564 2.62198774 3.40072174 4.64404172 4 8 C2.35 8 0.7 8 -1 8 C-0.67 5.36 -0.34 2.72 0 0 Z " fill="#1C5AC6" transform="translate(269,277)"/>
<path d="M0 0 C0.33 1.32 0.66 2.64 1 4 C0.01 5.485 0.01 5.485 -1 7 C-1.66 7 -2.32 7 -3 7 C-3 7.66 -3 8.32 -3 9 C-3.66 8.67 -4.32 8.34 -5 8 C-3.35 5.36 -1.7 2.72 0 0 Z " fill="#E01E23" transform="translate(350,120)"/>
<path d="M0 0 C0.66 0.66 1.32 1.32 2 2 C0.68 4.31 -0.64 6.62 -2 9 C-2.33 9 -2.66 9 -3 9 C-3 7.35 -3 5.7 -3 4 C-2.34 4 -1.68 4 -1 4 C-0.67 2.68 -0.34 1.36 0 0 Z " fill="#DB6464" transform="translate(412,276)"/>
<path d="M0 0 C2.97 0.33 5.94 0.66 9 1 C8.67 2.32 8.34 3.64 8 5 C4.35446828 3.7191375 2.83328987 2.83328987 0 0 Z " fill="#52AA6B" transform="translate(226,153)"/>
<path d="M0 0 C0.99 0.33 1.98 0.66 3 1 C4.17755913 3.94389782 4.03348696 4.89953913 3 8 C2.34 8 1.68 8 1 8 C1.33 6.35 1.66 4.7 2 3 C1.34 3 0.68 3 0 3 C0 2.01 0 1.02 0 0 Z " fill="#2B66C9" transform="translate(297,329)"/>
<path d="M0 0 C-1.98 1.32 -3.96 2.64 -6 4 C-6.66 3.67 -7.32 3.34 -8 3 C-8 2.34 -8 1.68 -8 1 C-4.93251126 -0.86240388 -3.40254489 -1.2151946 0 0 Z " fill="#F7D169" transform="translate(213,282)"/>
<path d="M0 0 C2.79872437 2.52788007 4.45773019 4.20411134 5 8 C4.01 7.67 3.02 7.34 2 7 C2 6.01 2 5.02 2 4 C1.34 4 0.68 4 0 4 C0 2.68 0 1.36 0 0 Z " fill="#D34147" transform="translate(395,157)"/>
</svg>
